{
    "asset" : {
        "generator" : "Khronos glTF Blender I/O v3.3.27",
        "version" : "2.0"
    },
    "scene" : 0,
    "scenes" : [
        {
            "name" : "Scene",
            "nodes" : [
                0
            ]
        }
    ],
    "nodes" : [
        {
            "mesh" : 0,
            "name" : "Cube"
        }
    ],
    "materials" : [
        {
            "doubleSided" : true,
            "name" : "material-block",
            "normalTexture" : {
                "index" : 0,
                "scale" : 2
            },
            "pbrMetallicRoughness" : {
                "baseColorTexture" : {
                    "index" : 1
                },
                "metallicFactor" : 0,
                "metallicRoughnessTexture" : {
                    "index" : 2
                }
            }
        }
    ],
    "meshes" : [
        {
            "name" : "Cube",
            "primitives" : [
                {
                    "attributes" : {
                        "POSITION" : 0,
                        "NORMAL" : 1,
                        "TEXCOORD_0" : 2
                    },
                    "indices" : 3,
                    "material" : 0
                }
            ]
        }
    ],
    "textures" : [
        {
            "sampler" : 0,
            "source" : 0
        },
        {
            "sampler" : 0,
            "source" : 0
        },
        {
            "sampler" : 0,
            "source" : 1
        }
    ],
    "images" : [
        {
            "bufferView" : 4,
            "mimeType" : "image/jpeg",
            "name" : "stickers-seamless-vector-futuristic-techno-texture-abstract-energy-line-on-brushed-metal-background-power-vein-light-tech-pattern"
        },
        {
            "bufferView" : 5,
            "mimeType" : "image/png",
            "name" : "stickers-seamless-vector-futuristic-techno-texture-abstract-energy-line-on-brushed-metal-background-power-vein-light-tech-pattern"
        }
    ],
    "accessors" : [
        {
            "bufferView" : 0,
            "componentType" : 5126,
            "count" : 844,
            "max" : [
                0.5,
                0.5,
                0.5
            ],
            "min" : [
                -0.5,
                -0.5,
                -0.5
            ],
            "type" : "VEC3"
        },
        {
            "bufferView" : 1,
            "componentType" : 5126,
            "count" : 844,
            "type" : "VEC3"
        },
        {
            "bufferView" : 2,
            "componentType" : 5126,
            "count" : 844,
            "type" : "VEC2"
        },
        {
            "bufferView" : 3,
            "componentType" : 5123,
            "count" : 3588,
            "type" : "SCALAR"
        }
    ],
    "bufferViews" : [
        {
            "buffer" : 0,
            "byteLength" : 10128,
            "byteOffset" : 0,
            "target" : 34962
        },
        {
            "buffer" : 0,
            "byteLength" : 10128,
            "byteOffset" : 10128,
            "target" : 34962
        },
        {
            "buffer" : 0,
            "byteLength" : 6752,
            "byteOffset" : 20256,
            "target" : 34962
        },
        {
            "buffer" : 0,
            "byteLength" : 7176,
            "byteOffset" : 27008,
            "target" : 34963
        },
        {
            "buffer" : 0,
            "byteLength" : 73086,
            "byteOffset" : 34184
        },
        {
            "buffer" : 0,
            "byteLength" : 244989,
            "byteOffset" : 107272
        }
    ],
    "samplers" : [
        {
            "magFilter" : 9729,
            "minFilter" : 9987
        }
    ],
    "buffers" : [
        {
            "byteLength" : 352264,
            "uri" : "data:application/octet-stream;base64,"
        }
    ]
}
