{
    "asset" : {
        "generator" : "Khronos glTF Blender I/O v3.3.27",
        "version" : "2.0"
    },
    "scene" : 0,
    "scenes" : [
        {
            "name" : "Scene",
            "nodes" : [
                0
            ]
        }
    ],
    "nodes" : [
        {
            "mesh" : 0,
            "name" : "SpikeBall"
        }
    ],
    "materials" : [
        {
            "doubleSided" : true,
            "name" : "spikeballHiMetal",
            "pbrMetallicRoughness" : {
                "baseColorFactor" : [
                    0.22657644748687744,
                    0.22657644748687744,
                    0.22657644748687744,
                    1
                ],
                "metallicFactor" : 0,
                "roughnessFactor" : 0.5
            }
        },
        {
            "doubleSided" : true,
            "name" : "spikeballHiAneis",
            "pbrMetallicRoughness" : {
                "baseColorFactor" : [
                    1,
                    1,
                    1,
                    1
                ],
                "metallicFactor" : 0,
                "roughnessFactor" : 0.5
            }
        }
    ],
    "meshes" : [
        {
            "name" : "Spikeball",
            "primitives" : [
                {
                    "attributes" : {
                        "POSITION" : 0,
                        "NORMAL" : 1,
                        "TEXCOORD_0" : 2
                    },
                    "indices" : 3,
                    "material" : 0
                },
                {
                    "attributes" : {
                        "POSITION" : 4,
                        "NORMAL" : 5,
                        "TEXCOORD_0" : 6
                    },
                    "indices" : 7,
                    "material" : 1
                }
            ]
        }
    ],
    "accessors" : [
        {
            "bufferView" : 0,
            "componentType" : 5126,
            "count" : 408,
            "max" : [
                1.4258755445480347,
                1.404308795928955,
                1.4258739948272705
            ],
            "min" : [
                -1.4258757829666138,
                -1.4474430084228516,
                -1.4258778095245361
            ],
            "type" : "VEC3"
        },
        {
            "bufferView" : 1,
            "componentType" : 5126,
            "count" : 408,
            "type" : "VEC3"
        },
        {
            "bufferView" : 2,
            "componentType" : 5126,
            "count" : 408,
            "type" : "VEC2"
        },
        {
            "bufferView" : 3,
            "componentType" : 5123,
            "count" : 1716,
            "type" : "SCALAR"
        },
        {
            "bufferView" : 4,
            "componentType" : 5126,
            "count" : 2106,
            "max" : [
                1.0805737972259521,
                1.0767426490783691,
                1.0805723667144775
            ],
            "min" : [
                -1.0805740356445312,
                -1.0844056606292725,
                -1.0805761814117432
            ],
            "type" : "VEC3"
        },
        {
            "bufferView" : 5,
            "componentType" : 5126,
            "count" : 2106,
            "type" : "VEC3"
        },
        {
            "bufferView" : 6,
            "componentType" : 5126,
            "count" : 2106,
            "type" : "VEC2"
        },
        {
            "bufferView" : 7,
            "componentType" : 5123,
            "count" : 3276,
            "type" : "SCALAR"
        }
    ],
    "bufferViews" : [
        {
            "buffer" : 0,
            "byteLength" : 4896,
            "byteOffset" : 0,
            "target" : 34962
        },
        {
            "buffer" : 0,
            "byteLength" : 4896,
            "byteOffset" : 4896,
            "target" : 34962
        },
        {
            "buffer" : 0,
            "byteLength" : 3264,
            "byteOffset" : 9792,
            "target" : 34962
        },
        {
            "buffer" : 0,
            "byteLength" : 3432,
            "byteOffset" : 13056,
            "target" : 34963
        },
        {
            "buffer" : 0,
            "byteLength" : 25272,
            "byteOffset" : 16488,
            "target" : 34962
        },
        {
            "buffer" : 0,
            "byteLength" : 25272,
            "byteOffset" : 41760,
            "target" : 34962
        },
        {
            "buffer" : 0,
            "byteLength" : 16848,
            "byteOffset" : 67032,
            "target" : 34962
        },
        {
            "buffer" : 0,
            "byteLength" : 6552,
            "byteOffset" : 83880,
            "target" : 34963
        }
    ],
    "buffers" : [
        {
            "byteLength" : 90432,
            "uri" : "data:application/octet-stream;base64,"
        }
    ]
}
